<svg width="500" height="500" version="1.1" xmlns="http://www.w3.org/2000/svg" desc="Created with imagetracer.js version 1.2.6" ><path fill="rgb(235,235,236)" stroke="rgb(235,235,236)" stroke-width="1" opacity="0.8941176470588236" d="M 158.5 185 Q 164.9 185.7 167 190.5 L 167 201.5 L 163 209.5 L 146 231 L 144 231 L 144 233 L 142 233 L 142 235 L 140 235 L 140 237 L 138 237 L 138 239 L 136 239 Q 137.1 241.7 134.5 241 L 115.5 259 L 114 259 Q 115.1 261.7 112.5 261 L 99 251.5 L 106 243 L 108 243 L 108 241 L 110 241 L 110 239 L 112 239 L 112 237 L 114 237 L 114 235 L 116 235 L 116 233 Q 118.7 234.1 118 231.5 L 132 216.5 L 155.5 186 L 158.5 185 Z " /><path fill="rgb(235,235,236)" stroke="rgb(235,235,236)" stroke-width="1" opacity="0.8941176470588236" d="M 272.5 210 Q 280.5 208.5 282 213.5 L 283 218.5 L 279.5 223 L 274.5 224 L 269 219.5 L 268 216.5 L 272.5 210 Z " /><path fill="rgb(235,235,236)" stroke="rgb(235,235,236)" stroke-width="1" opacity="0.8941176470588236" d="M 186 211 L 235.5 211 L 236 211.5 L 236 221.5 Q 234.8 224.2 233.5 222 L 217 222.5 L 217 224.5 L 218 231.5 L 217 232.5 L 217 255.5 L 218 256.5 L 218 264.5 Q 215.7 265.7 217 270.5 Q 219.3 271.8 216.5 273 L 205.5 273 L 205 272.5 L 205 222 L 186 222 L 186 211 Z " /><path fill="rgb(235,235,236)" stroke="rgb(235,235,236)" stroke-width="1" opacity="0.8941176470588236" d="M 255.5 227 L 263 227 L 263 240 Q 260.7 237.4 254.5 238 L 249 241.5 L 247 245.5 L 247 273 L 236.5 273 L 236 272.5 L 236 228 L 247 228 L 247 232.5 L 248 232.5 L 249.5 230 L 255.5 227 Z " /><path fill="rgb(235,235,236)" stroke="rgb(235,235,236)" stroke-width="1" opacity="0.8941176470588236" d="M 310.5 227 L 319.5 227 L 328.5 234 Q 331.7 228.7 338.5 227 L 347.5 227 L 357 233.5 L 359 238.5 L 359 273 L 348 273 L 348 245.5 L 343.5 238 Q 333.4 236.4 331 242.5 L 331 271.5 L 329.5 273 L 319 273 L 319 242.5 Q 317.5 236.5 308.5 238 L 304 240 L 302 244.5 L 302 273 L 291.5 273 L 290 271.5 L 290 228.5 L 290.5 228 L 302 228 L 302.5 232 L 310.5 227 Z " /><path fill="rgb(235,235,236)" stroke="rgb(235,235,236)" stroke-width="1" opacity="0.8941176470588236" d="M 387.5 227 L 396.5 227 L 405.5 234 Q 409.8 225.8 423.5 227 Q 430 228.5 433 233.5 L 435 237.5 L 435 239.5 L 435 273 L 423 273 L 423 241.5 L 420.5 239 L 412.5 238 L 408 242.5 L 407 257.5 L 408 260.5 L 408 271.5 L 406.5 273 L 396 273 L 396 244.5 L 391.5 238 Q 383.5 236.5 381 240.5 Q 377.2 249.2 379 263.5 Q 381.7 265.2 380 271.5 L 378.5 273 L 368 273 L 368 228.5 L 368.5 228 L 378.5 228 L 380 231 L 387.5 227 Z " /><path fill="rgb(235,235,236)" stroke="rgb(235,235,236)" stroke-width="1" opacity="0.8941176470588236" d="M 270 228 L 280.5 228 L 281 228.5 L 281 273 L 270.5 273 L 270 272.5 L 270 228 Z " /><path fill="rgb(235,235,236)" stroke="rgb(235,235,236)" stroke-width="1" opacity="0.8941176470588236" d="M 82.5 249 L 90.5 251 L 112.5 267 L 125.5 274 L 151.5 282 L 154.5 284 L 159.5 284 Q 160.9 286.6 165.5 286 L 173 291.5 L 174 300.5 L 173 304 L 171 304 Q 172.1 306.7 169.5 306 L 167.5 308 L 157.5 309 L 128.5 300 L 112.5 292 L 79 271 L 79 269 L 75 267 L 75 264.5 Q 72.4 263.1 73 258.5 L 77.5 251 L 82.5 249 Z M 89 259 L 86 262 Q 85 266 89 267 L 93 266 L 94 264 L 93 262 Q 93 259 89 259 Z M 160 293 L 157 296 L 158 299 Q 157 302 163 300 Q 165 299 164 296 Q 164 293 160 293 Z " /><path fill="rgb(235,235,236)" stroke="rgb(235,235,236)" stroke-width="1" opacity="0.8941176470588236" d="M 75.5 275 L 78.5 275 L 85 280.5 L 76.5 286 L 69.5 287 L 65 284.5 Q 63.1 279.1 66.5 280 L 75.5 275 Z " /><path fill="rgb(0,0,0)" stroke="rgb(0,0,0)" stroke-width="1" opacity="0" d="M 0 0 L 500 0 L 500 500 L 0 500 L 0 0 Z M 159 185 L 156 186 L 132 217 L 118 232 Q 119 234 116 233 L 116 235 L 114 235 L 114 237 L 112 237 L 112 239 L 110 239 L 110 241 L 108 241 L 108 243 L 106 243 L 99 252 L 113 261 Q 115 262 114 259 L 116 259 L 135 241 Q 137 242 136 239 L 138 239 L 138 237 L 140 237 L 140 235 L 142 235 L 142 233 L 144 233 L 144 231 L 146 231 L 163 210 L 167 202 L 167 191 Q 165 186 159 185 Z M 273 210 L 268 217 L 269 220 L 275 224 L 280 223 L 283 219 L 282 214 Q 281 209 273 210 Z M 186 211 L 186 222 L 205 222 L 205 273 L 206 273 L 217 273 Q 219 272 217 271 Q 216 266 218 265 L 218 257 L 217 256 L 217 233 L 218 232 L 217 225 L 217 223 L 234 222 Q 235 224 236 222 L 236 212 L 236 211 L 186 211 Z M 256 227 L 250 230 L 248 233 L 247 233 L 247 228 L 236 228 L 236 273 L 237 273 L 247 273 L 247 246 L 249 242 L 255 238 Q 261 237 263 240 L 263 227 L 256 227 Z M 311 227 L 303 232 L 302 228 L 291 228 L 290 229 L 290 272 L 292 273 L 302 273 L 302 245 L 304 240 L 309 238 Q 317 237 319 243 L 319 273 L 330 273 L 331 272 L 331 243 Q 333 236 344 238 L 348 246 L 348 273 L 359 273 L 359 239 L 357 234 L 348 227 L 339 227 Q 332 229 329 234 L 320 227 L 311 227 Z M 388 227 L 380 231 L 379 228 L 369 228 L 368 229 L 368 273 L 379 273 L 380 272 Q 382 265 379 264 Q 377 249 381 241 Q 384 237 392 238 L 396 245 L 396 273 L 407 273 L 408 272 L 408 261 L 407 258 L 408 243 L 413 238 L 421 239 L 423 242 L 423 273 L 435 273 L 435 240 L 435 238 L 433 234 Q 430 229 424 227 Q 410 226 406 234 L 397 227 L 388 227 Z M 270 228 L 270 273 L 271 273 L 281 273 L 281 229 L 281 228 L 270 228 Z M 83 249 L 78 251 L 73 259 Q 72 263 75 265 L 75 267 L 79 269 L 79 271 L 113 292 L 129 300 L 158 309 L 168 308 L 170 306 Q 172 307 171 304 L 173 304 L 174 301 L 173 292 L 166 286 Q 161 287 160 284 L 155 284 L 152 282 L 126 274 L 113 267 L 91 251 L 83 249 Z M 76 275 L 67 280 Q 63 279 65 285 L 70 287 L 77 286 L 85 281 L 79 275 L 76 275 Z " /><path fill="rgb(0,0,0)" stroke="rgb(0,0,0)" stroke-width="1" opacity="0" d="M 88.5 259 Q 92.5 258.5 93 261.5 L 94 263.5 L 93 266 L 88.5 267 Q 85.3 266.3 86 261.5 L 88.5 259 Z " /><path fill="rgb(0,0,0)" stroke="rgb(0,0,0)" stroke-width="1" opacity="0" d="M 159.5 293 Q 163.5 292.5 164 295.5 Q 164.8 299.3 162.5 300 Q 157.1 301.9 158 298.5 L 157 295.5 L 159.5 293 Z " /></svg>